<svg xmlns="http://www.w3.org/2000/svg" version="1.1" xmlns:xlink="http://www.w3.org/1999/xlink" xmlns:svgjs="http://svgjs.dev/svgjs" width="1500" height="462" viewBox="0 0 1500 462"><g transform="matrix(1,0,0,1,-0.9090909090909918,0.7622686124689153)"><svg viewBox="0 0 396 122" data-background-color="#0b022d" preserveAspectRatio="xMidYMid meet" height="462" width="1500" xmlns="http://www.w3.org/2000/svg" xmlns:xlink="http://www.w3.org/1999/xlink"><g id="tight-bounds" transform="matrix(1,0,0,1,0.2400000000000091,-0.2012917115177686)"><svg viewBox="0 0 395.52 122.40258342303551" height="122.40258342303551" width="395.52"><g><svg viewBox="0 0 395.52 122.40258342303551" height="122.40258342303551" width="395.52"><g><svg viewBox="0 0 395.52 122.40258342303551" height="122.40258342303551" width="395.52"><g id="textblocktransform"><svg viewBox="0 0 395.52 122.40258342303551" height="122.40258342303551" width="395.52" id="textblock"><g><svg viewBox="0 0 395.52 122.40258342303551" height="122.40258342303551" width="395.52"><g transform="matrix(1,0,0,1,0,0)"><svg width="395.52" viewBox="4 -28.75 92.9 28.75" height="122.40258342303551" data-palette-color="#f7fff7"><path d="M4-25.3L4-25.3 9.7-28.75 20-28.75 20-23.1 10.3-23.1 10.3-17.2 20-17.2 20-11.5 10.3-11.5 10.3 0 4 0 4-25.3ZM38.45-25.3L38.45-25.3 32.55-28.75 22.25-28.75 22.25-23.1 32.15-23.1 32.15-17.2 22.25-17.2 22.25-11.5 32.15-11.5 32.15 0 38.45 0 38.45-25.3ZM62.45 0L62.45-28.75 78.45-28.75 78.45-23.1 68.75-23.1 68.75-5.85 78.45-5.85 78.45 0 62.45 0ZM96.9-3.4L96.9-25.3 91.25-28.75 80.9-28.75 80.9-23.1 90.59-23.1 90.59-5.85 80.9-5.85 80.9 0 91.25 0 96.9-3.4Z" opacity="1" transform="matrix(1,0,0,1,0,0)" fill="#f7fff7" class="wordmark-text-0" data-fill-palette-color="primary" id="text-0"></path></svg></g></svg></g></svg></g></svg></g><g></g></svg></g><defs></defs></svg><rect width="395.52" height="122.40258342303551" fill="none" stroke="none" visibility="hidden"></rect></g></svg></g></svg>